<?xml version="1.0" standalone="no"?>
<!DOCTYPE svg PUBLIC "-//W3C//DTD SVG 20010904//EN"
 "http://www.w3.org/TR/2001/REC-SVG-20010904/DTD/svg10.dtd">
<svg version="1.0" xmlns="http://www.w3.org/2000/svg"
 width="101.000000pt" height="101.000000pt" viewBox="0 0 101.000000 101.000000"
 preserveAspectRatio="xMidYMid meet">
<metadata>
Created by potrace 1.14, written by Peter Selinger 2001-2017
</metadata>
<g transform="translate(0.000000,101.000000) scale(0.100000,-0.100000)"
fill="#000000" stroke="none">
<path d="M31 984 l-31 -26 0 -448 0 -448 31 -26 31 -26 433 0 433 0 31 26 31
26 0 448 0 448 -31 26 -31 26 -433 0 -433 0 -31 -26z m907 -26 c17 -17 17
-879 0 -896 -17 -17 -869 -17 -886 0 -17 17 -17 879 0 896 17 17 869 17 886 0z"/>
<path d="M110 931 c-44 -12 -46 -107 -2 -126 20 -9 22 -17 22 -96 0 -71 -4
-94 -25 -135 -30 -60 -18 -79 15 -24 28 44 39 49 47 20 3 -11 9 -20 14 -20 5
0 9 -5 9 -11 0 -16 28 -40 34 -30 8 12 -8 49 -34 81 -15 19 -23 48 -28 114 -8
87 -8 88 16 97 30 12 29 12 35 -13 7 -27 -2 -45 -14 -27 -13 20 -29 -7 -29
-47 0 -44 29 -124 46 -124 18 0 17 28 -1 60 -8 14 -14 41 -13 60 l1 35 4 -32
c4 -32 30 -50 61 -44 10 1 9 -5 -4 -23 -20 -32 -12 -136 12 -136 11 0 12 12 8
58 -6 58 -6 59 24 71 25 10 31 20 35 54 3 23 3 62 -1 87 l-7 45 -49 3 c-36 2
-47 0 -44 -10 3 -7 18 -14 35 -16 34 -3 43 -22 42 -82 -1 -36 -3 -31 -14 34
-6 34 -9 38 -31 33 -27 -5 -47 14 -42 40 2 13 15 19 48 23 41 5 45 8 48 34 5
37 -3 43 -66 51 -49 7 -54 5 -50 -11 2 -14 13 -19 41 -20 62 -2 68 -21 8 -25
-36 -3 -51 0 -51 9 0 18 -38 52 -57 51 -10 -1 -29 -4 -43 -8z m70 -41 c0 -5
-16 -10 -35 -10 -19 0 -35 5 -35 10 0 6 16 10 35 10 19 0 35 -4 35 -10z m-10
-55 c-16 -19 -34 -19 -49 -1 -10 12 -7 15 21 18 41 4 44 2 28 -17z m120 -75
c0 -5 -12 -10 -27 -9 l-28 1 25 8 c14 4 26 8 28 9 1 1 2 -3 2 -9z m-10 -56 c0
-7 -8 -10 -20 -7 -11 3 -20 9 -20 14 0 4 9 7 20 6 11 -1 20 -7 20 -13z"/>
<path d="M486 924 c-3 -9 -6 -79 -6 -157 l-1 -142 -21 39 c-15 30 -22 65 -26
143 -3 57 -9 103 -13 103 -29 0 -22 -176 11 -262 26 -71 26 -72 -5 -74 -14 0
-28 -4 -31 -7 -9 -9 4 -39 15 -33 5 3 27 8 50 10 39 4 41 3 41 -24 0 -16 7
-36 17 -45 15 -16 15 -17 -4 -13 -11 1 -28 -4 -38 -12 -10 -8 -32 -15 -49 -16
-62 -2 -65 -4 -60 -19 4 -8 10 -12 15 -9 5 3 9 -4 9 -16 0 -12 -4 -18 -10 -15
-17 10 -15 -61 2 -82 6 -8 6 -19 -1 -32 -13 -23 -4 -76 15 -92 8 -6 26 -9 40
-6 25 4 26 3 21 -29 -4 -24 -2 -34 8 -34 12 0 21 30 41 129 4 22 9 29 14 21 4
-7 17 -10 29 -7 19 4 21 1 21 -31 0 -40 14 -98 30 -122 6 -10 12 -12 20 -4 7
7 6 22 -6 50 -9 21 -17 62 -18 89 -1 48 -2 50 -28 50 -16 -1 -28 3 -28 7 0 8
10 10 50 10 14 0 28 5 32 12 14 21 8 55 -12 66 -27 15 -82 9 -88 -9 -3 -8 0
-11 6 -7 6 4 16 -4 23 -16 6 -13 8 -20 4 -15 -5 4 -17 -1 -27 -10 -19 -17 -19
-16 -16 32 l3 50 68 -1 c75 -2 90 17 21 26 -37 5 -38 6 -11 13 23 6 27 13 27
41 0 37 -7 42 -62 41 -28 0 -38 4 -38 16 0 15 25 19 46 7 13 -9 41 9 30 19 -4
4 -20 9 -34 9 -15 1 -33 2 -39 3 -15 1 -18 71 -3 71 6 0 10 -4 10 -9 0 -5 8
-8 18 -7 14 2 19 21 29 102 7 54 17 119 23 143 8 30 8 47 1 54 -6 6 -13 8 -16
5 -10 -10 -34 -160 -35 -216 0 -50 -1 -52 -21 -40 -19 12 -20 21 -19 123 1 61
2 118 1 128 -1 21 -17 22 -25 1z m109 -452 c-9 -9 -35 -11 -35 -3 0 14 12 20
26 14 8 -3 12 -8 9 -11z m-60 -43 c-4 -5 -15 -9 -26 -9 -26 0 -17 15 10 17 12
1 19 -2 16 -8z m-95 -45 c0 -8 -4 -12 -10 -9 -5 3 -10 10 -10 16 0 5 5 9 10 9
6 0 10 -7 10 -16z m37 -6 c-3 -8 -6 -5 -6 6 -1 11 2 17 5 13 3 -3 4 -12 1 -19z
m-67 -51 c0 -5 -4 -5 -10 -2 -5 3 -10 14 -10 23 0 15 2 15 10 2 5 -8 10 -19
10 -23z m41 0 c-10 -9 -11 -8 -5 6 3 10 9 15 12 12 3 -3 0 -11 -7 -18z m149 8
c0 -8 -4 -15 -10 -15 -5 0 -10 7 -10 15 0 8 5 15 10 15 6 0 10 -7 10 -15z
m-116 -41 c-6 -32 -8 -35 -15 -19 -6 19 -8 19 -17 -5 -7 -15 -11 -19 -11 -9
-1 9 8 24 19 34 11 10 20 25 20 33 0 9 3 13 6 10 3 -3 2 -23 -2 -44z m-70 -30
c3 -8 2 -12 -4 -9 -6 3 -10 10 -10 16 0 14 7 11 14 -7z m26 -59 c0 -8 -7 -15
-15 -15 -16 0 -20 12 -8 23 11 12 23 8 23 -8z"/>
<path d="M713 930 c-26 -11 -37 -56 -28 -116 6 -43 7 -44 43 -44 l37 -1 -23
-19 c-13 -11 -36 -28 -50 -39 -18 -13 -24 -23 -17 -30 7 -6 24 0 52 19 29 20
45 25 49 18 4 -7 -1 -17 -10 -22 -10 -6 -34 -26 -54 -44 -25 -23 -32 -36 -25
-43 8 -8 18 -4 34 12 13 13 27 23 32 22 4 -2 7 2 7 8 0 5 4 7 10 4 5 -3 18 7
27 22 21 32 67 43 76 19 5 -12 0 -16 -18 -17 -14 -1 -31 -2 -37 -3 -7 0 -14
-11 -16 -23 -3 -21 -13 -28 -34 -24 -5 0 -8 -4 -8 -10 0 -5 -5 -7 -11 -3 -7 4
-10 -1 -7 -12 2 -12 12 -19 25 -19 12 0 24 -3 28 -7 8 -8 -43 -24 -64 -19 -7
1 -11 -4 -9 -11 3 -7 18 -13 34 -13 l29 0 3 -76 3 -75 -48 1 c-57 1 -73 -3
-73 -20 0 -9 17 -12 58 -12 l57 1 3 -55 c3 -49 1 -55 -18 -56 -16 -1 -20 4
-20 28 0 40 -22 33 -31 -10 -8 -39 7 -110 28 -133 22 -24 94 -24 116 0 31 35
31 159 -1 170 -8 2 -12 -8 -12 -27 0 -23 -5 -31 -17 -31 -15 0 -18 8 -15 55 3
43 8 55 20 56 36 2 87 6 91 8 2 0 -2 7 -8 15 -8 9 -27 13 -57 11 l-45 -3 3 76
3 77 38 -1 c23 0 36 3 34 10 -2 6 -12 10 -21 10 -9 -1 -16 2 -16 7 0 5 -3 8
-7 6 -5 -1 -8 3 -8 8 0 6 4 9 8 7 11 -3 47 17 47 28 0 5 -9 7 -20 5 -11 -2
-22 1 -25 6 -4 5 -11 6 -17 3 -6 -4 -9 -1 -6 7 4 13 10 15 51 18 13 1 17 10
17 36 0 39 -20 55 -69 55 -34 0 -34 0 -31 82 2 54 0 58 -24 64 -15 3 -36 4
-49 1 -21 -6 -21 -6 -3 8 11 8 32 15 48 15 30 0 38 14 12 24 -21 8 -44 7 -71
-4z m57 -80 c0 -5 -14 -10 -31 -10 -17 0 -28 4 -24 10 3 6 17 10 31 10 13 0
24 -4 24 -10z m-5 -40 c4 -6 -7 -10 -27 -10 -25 0 -29 3 -18 10 19 13 37 13
45 0z m85 -619 c0 -38 -11 -51 -46 -51 -34 0 -54 20 -54 54 0 12 11 16 50 16
43 0 50 -3 50 -19z"/>
<path d="M826 922 c-13 -21 -16 -84 -6 -120 13 -49 50 -67 78 -39 20 21 24
158 5 164 -9 3 -13 -6 -13 -26 0 -24 -4 -31 -20 -31 -16 0 -20 7 -20 30 0 28
-13 40 -24 22z m64 -101 c0 -10 -7 -24 -15 -31 -12 -10 -16 -8 -25 15 -13 35
-14 35 15 35 18 0 25 -5 25 -19z"/>
<path d="M80 758 c0 -6 5 -26 12 -45 10 -27 9 -38 -5 -68 -19 -39 -22 -65 -8
-65 30 0 53 129 31 171 -12 21 -30 26 -30 7z"/>
<path d="M167 500 c-9 -41 -9 -163 -1 -184 5 -12 20 -16 59 -16 50 0 52 -1 47
-25 -4 -23 -8 -25 -67 -24 -34 1 -68 5 -75 9 -10 6 -12 31 -7 104 6 111 2 142
-19 125 -11 -9 -14 -43 -14 -141 0 -188 17 -218 124 -218 84 0 91 15 91 201 0
81 -4 151 -8 155 -17 17 -28 -23 -23 -82 l5 -61 -42 0 -42 -1 3 77 c2 54 -1
82 -11 95 -13 18 -14 17 -20 -14z m103 -298 c0 -28 -21 -42 -64 -42 -36 0 -76
21 -76 41 0 10 32 16 93 18 39 1 47 -2 47 -17z"/>
<path d="M382 482 c5 -23 98 -25 98 -2 0 11 -13 15 -51 17 -42 1 -50 -2 -47
-15z"/>
</g>
</svg>
